<svg width="253.5" height="533.23257" xmlns="http://www.w3.org/2000/svg">

 <g>
  <title>background</title>
  <rect fill="none" id="canvas_background" height="535.23257" width="255.5" y="-1" x="-1"/>
 </g>
 <g>
  <title>Layer 1</title>
  <ellipse id="svg_1" fill="#e6e6e6" ry="9" rx="118" cy="531.23257" cx="118"/>
  <path id="svg_2" fill="#9f616a" d="m156.218,135.46083l-47.07583,-12.83886q18.85578,-17.793 16.40521,-33.5237l30.67062,0l0,46.36256z"/>
  <polygon id="svg_3" fill="#2f2e41" points="161.211 496.376 146.005 498.515 127.687 330.184 98.443 497.802 82.751 498.515 82.751 285.961 179.756 285.961 161.211 496.376"/>
  <path id="svg_4" fill="#2f2e41" d="m90.64831,530.30937l0,0a10.69525,10.69525 0 0 0 10.60707,-7.816l1.11072,-16.57479l-2.23906,-11.75506c-5.90752,-4.85489 -11.87976,-4.75376 -17.91246,0l-1.92358,24.62194a10.69524,10.69524 0 0 0 10.35731,11.52391z"/>
  <path id="svg_5" fill="#2f2e41" d="m153.41608,530.30937l0,0a10.69525,10.69525 0 0 0 10.60707,-7.816l1.11072,-16.57479l-2.23905,-11.75506c-5.90753,-4.85489 -11.87976,-4.75376 -17.91247,0l-1.92359,24.62195a10.69525,10.69525 0 0 0 10.35732,11.5239z"/>
  <circle id="svg_6" fill="#9f616a" r="27.10427" cy="84.10538" cx="149.79858"/>
  <path id="svg_7" fill="#e6e6e6" d="m184.03555,289.52718l-103.42418,0c13.40488,-62.12418 13.36732,-112.15823 2.68969,-152.62266a10.81293,10.81293 0 0 1 6.57562,-12.85324l27.82474,-10.70182c8.35359,10.788 20.1417,15.5 38.51659,8.55924l14.58078,2.99093a14.98248,14.98248 0 0 1 11.957,15.66542c-1.07315,15.82559 -0.65,31.77226 -1.57328,45.538c-2.85916,42.62824 -4.09396,75.86033 2.85304,103.42413z"/>
  <path id="svg_8" fill="#2f2e41" d="m135.53318,48.44188s15.69194,-17.83176 34.237,-0.71327l4.99289,1.42654l-3.56635,2.85308s18.545,8.55924 17.11849,26.391c0,0 -2.85308,-0.71327 -4.27962,0s-2.13982,8.55924 -2.13982,8.55924s-2.13981,-5.70616 -2.85308,-6.41943s-10.699,7.846 -27.10426,-4.99289c0,0 -4.99289,12.83886 -10.699,11.41232s-13.55214,-0.71327 -17.11849,8.55925c-0.00009,-0.00001 -19.25838,-41.36968 11.41224,-47.07584z"/>
  <path id="svg_9" fill="#9f616a" d="m189.02844,273.83529l-9.15617,12.272a12.02693,12.02693 0 0 0 2.59424,16.93944l0,0a12.02693,12.02693 0 0 0 18.92117,-7.8472l2.61941,-16.37132l4.99291,-70.61382l-3.56635,-35.66351l-22.82465,8.55924l6.41944,30.67062l0,62.05455z"/>
  <path id="svg_10" fill="#e6e6e6" d="m179.75592,189.66936l27.81754,-12.83886l-1.42654,-10.10582a41.48828,41.48828 0 0 0 -26.4891,-38.68205l-8.46114,-3.28085l8.55924,64.90758z"/>
  <path id="svg_11" fill="#9f616a" d="m78.47156,270.98216l9.15617,12.272a12.02693,12.02693 0 0 1 -2.59424,16.93944l0,0a12.02693,12.02693 0 0 1 -18.92117,-7.8472l-2.61941,-16.37132l-4.99291,-70.61379l3.56635,-35.66351l22.82465,8.55924l-6.41944,30.67062l0,62.05452z"/>
  <path id="svg_12" fill="#e6e6e6" d="m87.74408,186.81629l-27.81754,-12.83886l1.42654,-10.10582a41.48828,41.48828 0 0 1 26.4891,-38.68205l8.46114,-3.28085l-8.55924,64.90758z"/>
 </g>
</svg>